<svg width="59" height="50" viewBox="0 0 59 50" fill="none" xmlns="http://www.w3.org/2000/svg">
<path d="M23.8615 10.9438L34.4213 0L39.5882 5.16684L39.7717 6.0117L39.6331 5.97457L32.5792 13.2797L35.0355 23.1331L44.5457 25.6813L51.5997 18.3762L51.5356 18.1192L52.9084 18.487L58.2793 23.8579L47.2921 35.2447L34.22 31.742L15.962 50L9 43.038L27.2959 24.7421L23.8615 10.9438Z" fill="#26B1CD"/>
<path fill-rule="evenodd" clip-rule="evenodd" d="M34.6111 22.9782L34.6101 22.9779L32.1703 13.1906L39.1769 5.93449L39.3145 5.97136L39.1322 5.13218L34.0001 2.74534e-06L23.5111 10.8704L26.9224 24.5761L8.74928 42.7493L11.7947 45.7946L34.6111 22.9782Z" fill="#2F97C1"/>
</svg>
